<svg xmlns="http://www.w3.org/2000/svg" width="64" height="64" viewBox="0 0 64 64" shape-rendering="crispEdges"><rect x="20" y="24" width="24" height="2" fill="#101823"/><rect x="18" y="26" width="2" height="2" fill="#101823"/><rect x="20" y="26" width="24" height="2" fill="#97d3c2"/><rect x="44" y="26" width="2" height="2" fill="#101823"/><rect x="16" y="28" width="2" height="2" fill="#101823"/><rect x="18" y="28" width="28" height="2" fill="#97d3c2"/><rect x="46" y="28" width="2" height="2" fill="#101823"/><rect x="14" y="30" width="2" height="2" fill="#101823"/><rect x="16" y="30" width="32" height="2" fill="#97d3c2"/><rect x="48" y="30" width="2" height="2" fill="#101823"/><rect x="12" y="32" width="2" height="2" fill="#101823"/><rect x="14" y="32" width="36" height="2" fill="#97d3c2"/><rect x="50" y="32" width="2" height="2" fill="#101823"/><rect x="12" y="34" width="2" height="2" fill="#101823"/><rect x="14" y="34" width="4" height="2" fill="#97d3c2"/><rect x="18" y="34" width="2" height="2" fill="#e9d8ab"/><rect x="20" y="34" width="6" height="2" fill="#142739"/><rect x="26" y="34" width="12" height="2" fill="#97d3c2"/><rect x="38" y="34" width="2" height="2" fill="#e9d8ab"/><rect x="40" y="34" width="6" height="2" fill="#142739"/><rect x="46" y="34" width="4" height="2" fill="#97d3c2"/><rect x="50" y="34" width="2" height="2" fill="#101823"/><rect x="12" y="36" width="2" height="2" fill="#101823"/><rect x="14" y="36" width="4" height="2" fill="#97d3c2"/><rect x="18" y="36" width="8" height="2" fill="#142739"/><rect x="26" y="36" width="12" height="2" fill="#97d3c2"/><rect x="38" y="36" width="8" height="2" fill="#142739"/><rect x="46" y="36" width="4" height="2" fill="#97d3c2"/><rect x="50" y="36" width="2" height="2" fill="#101823"/><rect x="12" y="38" width="2" height="2" fill="#101823"/><rect x="14" y="38" width="4" height="2" fill="#97d3c2"/><rect x="18" y="38" width="8" height="2" fill="#142739"/><rect x="26" y="38" width="12" height="2" fill="#97d3c2"/><rect x="38" y="38" width="8" height="2" fill="#142739"/><rect x="46" y="38" width="4" height="2" fill="#97d3c2"/><rect x="50" y="38" width="2" height="2" fill="#101823"/><rect x="10" y="40" width="2" height="2" fill="#101823"/><rect x="12" y="40" width="40" height="2" fill="#97d3c2"/><rect x="52" y="40" width="2" height="2" fill="#101823"/><rect x="10" y="42" width="2" height="2" fill="#101823"/><rect x="12" y="42" width="40" height="2" fill="#97d3c2"/><rect x="52" y="42" width="2" height="2" fill="#101823"/><rect x="10" y="44" width="2" height="2" fill="#101823"/><rect x="12" y="44" width="40" height="2" fill="#97d3c2"/><rect x="52" y="44" width="2" height="2" fill="#101823"/><rect x="12" y="46" width="2" height="2" fill="#101823"/><rect x="14" y="46" width="36" height="2" fill="#97d3c2"/><rect x="50" y="46" width="2" height="2" fill="#101823"/><rect x="14" y="48" width="2" height="2" fill="#101823"/><rect x="16" y="48" width="32" height="2" fill="#97d3c2"/><rect x="48" y="48" width="2" height="2" fill="#101823"/><rect x="16" y="50" width="2" height="2" fill="#101823"/><rect x="18" y="50" width="28" height="2" fill="#97d3c2"/><rect x="46" y="50" width="2" height="2" fill="#101823"/><rect x="18" y="52" width="2" height="2" fill="#101823"/><rect x="20" y="52" width="24" height="2" fill="#97d3c2"/><rect x="44" y="52" width="2" height="2" fill="#101823"/><rect x="20" y="54" width="24" height="2" fill="#101823"/></svg>
