<svg xmlns="http://www.w3.org/2000/svg" width="64" height="64" viewBox="0 0 64 64" shape-rendering="crispEdges"><rect x="24" y="4" width="4" height="2" fill="#ffffff"/><rect x="36" y="4" width="4" height="2" fill="#ffffff"/><rect x="22" y="6" width="8" height="2" fill="#ffffff"/><rect x="34" y="6" width="8" height="2" fill="#ffffff"/><rect x="10" y="8" width="2" height="2" fill="#ffffff"/><rect x="12" y="8" width="4" height="2" fill="#ffffff"/><rect x="16" y="8" width="2" height="2" fill="#ffffff"/><rect x="26" y="8" width="16" height="2" fill="#ffffff"/><rect x="10" y="10" width="2" height="2" fill="#ffffff"/><rect x="12" y="10" width="4" height="2" fill="#ffffff"/><rect x="16" y="10" width="2" height="2" fill="#ffffff"/><rect x="26" y="10" width="2" height="2" fill="#ffffff"/><rect x="28" y="10" width="12" height="2" fill="#ffffff"/><rect x="40" y="10" width="2" height="2" fill="#ffffff"/><rect x="10" y="12" width="2" height="2" fill="#ffffff"/><rect x="12" y="12" width="4" height="2" fill="#ffffff"/><rect x="16" y="12" width="2" height="2" fill="#ffffff"/><rect x="28" y="12" width="8" height="2" fill="#ffffff"/><rect x="10" y="14" width="2" height="2" fill="#ffffff"/><rect x="12" y="14" width="4" height="2" fill="#ffffff"/><rect x="16" y="14" width="2" height="2" fill="#ffffff"/><rect x="30" y="14" width="4" height="2" fill="#ffffff"/><rect x="10" y="16" width="2" height="2" fill="#ffffff"/><rect x="12" y="16" width="4" height="2" fill="#ffffff"/><rect x="16" y="16" width="2" height="2" fill="#ffffff"/><rect x="26" y="16" width="2" height="2" fill="#ffffff"/><rect x="28" y="16" width="8" height="2" fill="#ffffff"/><rect x="36" y="16" width="2" height="2" fill="#ffffff"/><rect x="10" y="18" width="2" height="2" fill="#ffffff"/><rect x="12" y="18" width="4" height="2" fill="#ffffff"/><rect x="16" y="18" width="2" height="2" fill="#ffffff"/><rect x="24" y="18" width="2" height="2" fill="#ffffff"/><rect x="26" y="18" width="12" height="2" fill="#ffffff"/><rect x="38" y="18" width="2" height="2" fill="#ffffff"/><rect x="10" y="20" width="2" height="2" fill="#ffffff"/><rect x="12" y="20" width="4" height="2" fill="#ffffff"/><rect x="16" y="20" width="2" height="2" fill="#ffffff"/><rect x="22" y="20" width="2" height="2" fill="#ffffff"/><rect x="24" y="20" width="16" height="2" fill="#ffffff"/><rect x="40" y="20" width="2" height="2" fill="#ffffff"/><rect x="6" y="22" width="2" height="2" fill="#ffffff"/><rect x="8" y="22" width="12" height="2" fill="#ffffff"/><rect x="20" y="22" width="2" height="2" fill="#ffffff"/><rect x="22" y="22" width="20" height="2" fill="#ffffff"/><rect x="42" y="22" width="2" height="2" fill="#ffffff"/><rect x="10" y="24" width="2" height="2" fill="#ffffff"/><rect x="12" y="24" width="4" height="2" fill="#ffffff"/><rect x="16" y="24" width="4" height="2" fill="#ffffff"/><rect x="20" y="24" width="24" height="2" fill="#ffffff"/><rect x="44" y="24" width="2" height="2" fill="#ffffff"/><rect x="10" y="26" width="2" height="2" fill="#ffffff"/><rect x="12" y="26" width="4" height="2" fill="#ffffff"/><rect x="16" y="26" width="4" height="2" fill="#ffffff"/><rect x="20" y="26" width="24" height="2" fill="#ffffff"/><rect x="44" y="26" width="2" height="2" fill="#ffffff"/><rect x="10" y="28" width="2" height="2" fill="#ffffff"/><rect x="12" y="28" width="4" height="2" fill="#ffffff"/><rect x="16" y="28" width="2" height="2" fill="#ffffff"/><rect x="18" y="28" width="28" height="2" fill="#ffffff"/><rect x="46" y="28" width="2" height="2" fill="#ffffff"/><rect x="10" y="30" width="2" height="2" fill="#ffffff"/><rect x="12" y="30" width="4" height="2" fill="#ffffff"/><rect x="16" y="30" width="2" height="2" fill="#ffffff"/><rect x="18" y="30" width="6" height="2" fill="#ffffff"/><rect x="24" y="30" width="2" height="2" fill="#ffffff"/><rect x="26" y="30" width="2" height="2" fill="#ffffff"/><rect x="28" y="30" width="8" height="2" fill="#ffffff"/><rect x="36" y="30" width="2" height="2" fill="#ffffff"/><rect x="38" y="30" width="2" height="2" fill="#ffffff"/><rect x="40" y="30" width="6" height="2" fill="#ffffff"/><rect x="46" y="30" width="2" height="2" fill="#ffffff"/><rect x="10" y="32" width="2" height="2" fill="#ffffff"/><rect x="12" y="32" width="4" height="2" fill="#ffffff"/><rect x="16" y="32" width="2" height="2" fill="#ffffff"/><rect x="18" y="32" width="6" height="2" fill="#ffffff"/><rect x="24" y="32" width="4" height="2" fill="#ffffff"/><rect x="28" y="32" width="8" height="2" fill="#ffffff"/><rect x="36" y="32" width="4" height="2" fill="#ffffff"/><rect x="40" y="32" width="6" height="2" fill="#ffffff"/><rect x="46" y="32" width="2" height="2" fill="#ffffff"/><rect x="10" y="34" width="2" height="2" fill="#ffffff"/><rect x="12" y="34" width="4" height="2" fill="#ffffff"/><rect x="16" y="34" width="2" height="2" fill="#ffffff"/><rect x="18" y="34" width="28" height="2" fill="#ffffff"/><rect x="46" y="34" width="2" height="2" fill="#ffffff"/><rect x="10" y="36" width="2" height="2" fill="#ffffff"/><rect x="12" y="36" width="4" height="2" fill="#ffffff"/><rect x="16" y="36" width="2" height="2" fill="#ffffff"/><rect x="18" y="36" width="28" height="2" fill="#ffffff"/><rect x="46" y="36" width="2" height="2" fill="#ffffff"/><rect x="10" y="38" width="2" height="2" fill="#ffffff"/><rect x="12" y="38" width="4" height="2" fill="#ffffff"/><rect x="16" y="38" width="2" height="2" fill="#ffffff"/><rect x="18" y="38" width="4" height="2" fill="#ffffff"/><rect x="22" y="38" width="2" height="2" fill="#ffffff"/><rect x="24" y="38" width="16" height="2" fill="#ffffff"/><rect x="40" y="38" width="2" height="2" fill="#ffffff"/><rect x="42" y="38" width="4" height="2" fill="#ffffff"/><rect x="46" y="38" width="2" height="2" fill="#ffffff"/><rect x="10" y="40" width="2" height="2" fill="#ffffff"/><rect x="12" y="40" width="4" height="2" fill="#ffffff"/><rect x="16" y="40" width="2" height="2" fill="#ffffff"/><rect x="18" y="40" width="28" height="2" fill="#ffffff"/><rect x="46" y="40" width="2" height="2" fill="#ffffff"/><rect x="10" y="42" width="2" height="2" fill="#ffffff"/><rect x="12" y="42" width="4" height="2" fill="#ffffff"/><rect x="16" y="42" width="2" height="2" fill="#ffffff"/><rect x="18" y="42" width="28" height="2" fill="#ffffff"/><rect x="46" y="42" width="2" height="2" fill="#ffffff"/><rect x="10" y="44" width="2" height="2" fill="#ffffff"/><rect x="12" y="44" width="4" height="2" fill="#ffffff"/><rect x="16" y="44" width="2" height="2" fill="#ffffff"/><rect x="18" y="44" width="28" height="2" fill="#ffffff"/><rect x="46" y="44" width="2" height="2" fill="#ffffff"/><rect x="10" y="46" width="2" height="2" fill="#ffffff"/><rect x="12" y="46" width="4" height="2" fill="#ffffff"/><rect x="16" y="46" width="4" height="2" fill="#ffffff"/><rect x="20" y="46" width="24" height="2" fill="#ffffff"/><rect x="44" y="46" width="2" height="2" fill="#ffffff"/><rect x="10" y="48" width="2" height="2" fill="#ffffff"/><rect x="12" y="48" width="4" height="2" fill="#ffffff"/><rect x="16" y="48" width="4" height="2" fill="#ffffff"/><rect x="20" y="48" width="24" height="2" fill="#ffffff"/><rect x="44" y="48" width="2" height="2" fill="#ffffff"/><rect x="10" y="50" width="2" height="2" fill="#ffffff"/><rect x="12" y="50" width="2" height="2" fill="#ffffff"/><rect x="14" y="50" width="2" height="2" fill="#ffffff"/><rect x="20" y="50" width="2" height="2" fill="#ffffff"/><rect x="22" y="50" width="20" height="2" fill="#ffffff"/><rect x="42" y="50" width="2" height="2" fill="#ffffff"/><rect x="12" y="52" width="2" height="2" fill="#ffffff"/><rect x="22" y="52" width="20" height="2" fill="#ffffff"/><rect x="22" y="54" width="6" height="2" fill="#ffffff"/><rect x="36" y="54" width="6" height="2" fill="#ffffff"/><rect x="22" y="56" width="2" height="2" fill="#ffffff"/><rect x="24" y="56" width="2" height="2" fill="#ffffff"/><rect x="26" y="56" width="2" height="2" fill="#ffffff"/><rect x="36" y="56" width="2" height="2" fill="#ffffff"/><rect x="38" y="56" width="2" height="2" fill="#ffffff"/><rect x="40" y="56" width="2" height="2" fill="#ffffff"/><rect x="22" y="58" width="2" height="2" fill="#ffffff"/><rect x="24" y="58" width="2" height="2" fill="#ffffff"/><rect x="26" y="58" width="2" height="2" fill="#ffffff"/><rect x="36" y="58" width="2" height="2" fill="#ffffff"/><rect x="38" y="58" width="2" height="2" fill="#ffffff"/><rect x="40" y="58" width="2" height="2" fill="#ffffff"/></svg>
