<svg xmlns="http://www.w3.org/2000/svg" width="64" height="64" viewBox="0 0 64 64" shape-rendering="crispEdges"><rect x="26" y="12" width="12" height="2" fill="#101823"/><rect x="24" y="14" width="2" height="2" fill="#101823"/><rect x="26" y="14" width="12" height="2" fill="#8fd8bd"/><rect x="38" y="14" width="2" height="2" fill="#101823"/><rect x="22" y="16" width="2" height="2" fill="#101823"/><rect x="24" y="16" width="16" height="2" fill="#8fd8bd"/><rect x="40" y="16" width="2" height="2" fill="#101823"/><rect x="22" y="18" width="2" height="2" fill="#101823"/><rect x="24" y="18" width="16" height="2" fill="#8fd8bd"/><rect x="40" y="18" width="2" height="2" fill="#101823"/><rect x="22" y="20" width="2" height="2" fill="#101823"/><rect x="24" y="20" width="16" height="2" fill="#8fd8bd"/><rect x="40" y="20" width="2" height="2" fill="#101823"/><rect x="22" y="22" width="2" height="2" fill="#101823"/><rect x="24" y="22" width="16" height="2" fill="#8fd8bd"/><rect x="40" y="22" width="2" height="2" fill="#101823"/><rect x="22" y="24" width="2" height="2" fill="#101823"/><rect x="24" y="24" width="16" height="2" fill="#8fd8bd"/><rect x="40" y="24" width="2" height="2" fill="#101823"/><rect x="20" y="26" width="24" height="2" fill="#101823"/><rect x="14" y="28" width="2" height="2" fill="#101823"/><rect x="16" y="28" width="32" height="2" fill="#5fb39c"/><rect x="48" y="28" width="2" height="2" fill="#101823"/><rect x="12" y="30" width="2" height="2" fill="#101823"/><rect x="14" y="30" width="4" height="2" fill="#5fb39c"/><rect x="18" y="30" width="2" height="2" fill="#e9d8ab"/><rect x="20" y="30" width="6" height="2" fill="#142739"/><rect x="26" y="30" width="12" height="2" fill="#5fb39c"/><rect x="38" y="30" width="2" height="2" fill="#e9d8ab"/><rect x="40" y="30" width="6" height="2" fill="#142739"/><rect x="46" y="30" width="4" height="2" fill="#5fb39c"/><rect x="50" y="30" width="2" height="2" fill="#101823"/><rect x="12" y="32" width="2" height="2" fill="#101823"/><rect x="14" y="32" width="4" height="2" fill="#5fb39c"/><rect x="18" y="32" width="8" height="2" fill="#142739"/><rect x="26" y="32" width="12" height="2" fill="#5fb39c"/><rect x="38" y="32" width="8" height="2" fill="#142739"/><rect x="46" y="32" width="4" height="2" fill="#5fb39c"/><rect x="50" y="32" width="2" height="2" fill="#101823"/><rect x="10" y="34" width="2" height="2" fill="#101823"/><rect x="12" y="34" width="6" height="2" fill="#5fb39c"/><rect x="18" y="34" width="8" height="2" fill="#142739"/><rect x="26" y="34" width="12" height="2" fill="#5fb39c"/><rect x="38" y="34" width="8" height="2" fill="#142739"/><rect x="46" y="34" width="6" height="2" fill="#5fb39c"/><rect x="52" y="34" width="2" height="2" fill="#101823"/><rect x="8" y="36" width="2" height="2" fill="#101823"/><rect x="10" y="36" width="44" height="2" fill="#5fb39c"/><rect x="54" y="36" width="2" height="2" fill="#101823"/><rect x="8" y="38" width="2" height="2" fill="#101823"/><rect x="10" y="38" width="44" height="2" fill="#5fb39c"/><rect x="54" y="38" width="2" height="2" fill="#101823"/><rect x="8" y="40" width="2" height="2" fill="#101823"/><rect x="10" y="40" width="18" height="2" fill="#5fb39c"/><rect x="28" y="40" width="10" height="2" fill="#233044"/><rect x="38" y="40" width="16" height="2" fill="#5fb39c"/><rect x="54" y="40" width="2" height="2" fill="#101823"/><rect x="8" y="42" width="2" height="2" fill="#101823"/><rect x="10" y="42" width="18" height="2" fill="#5fb39c"/><rect x="28" y="42" width="10" height="2" fill="#233044"/><rect x="38" y="42" width="16" height="2" fill="#5fb39c"/><rect x="54" y="42" width="2" height="2" fill="#101823"/><rect x="8" y="44" width="2" height="2" fill="#101823"/><rect x="10" y="44" width="18" height="2" fill="#5fb39c"/><rect x="28" y="44" width="10" height="2" fill="#233044"/><rect x="38" y="44" width="16" height="2" fill="#5fb39c"/><rect x="54" y="44" width="2" height="2" fill="#101823"/><rect x="8" y="46" width="2" height="2" fill="#101823"/><rect x="10" y="46" width="44" height="2" fill="#5fb39c"/><rect x="54" y="46" width="2" height="2" fill="#101823"/><rect x="8" y="48" width="2" height="2" fill="#101823"/><rect x="10" y="48" width="44" height="2" fill="#5fb39c"/><rect x="54" y="48" width="2" height="2" fill="#101823"/><rect x="10" y="50" width="2" height="2" fill="#101823"/><rect x="12" y="50" width="40" height="2" fill="#5fb39c"/><rect x="52" y="50" width="2" height="2" fill="#101823"/><rect x="12" y="52" width="2" height="2" fill="#101823"/><rect x="14" y="52" width="36" height="2" fill="#5fb39c"/><rect x="50" y="52" width="2" height="2" fill="#101823"/><rect x="14" y="54" width="36" height="2" fill="#101823"/><rect x="16" y="56" width="2" height="2" fill="#101823"/><rect x="18" y="56" width="8" height="2" fill="#5fb39c"/><rect x="26" y="56" width="2" height="2" fill="#101823"/><rect x="36" y="56" width="2" height="2" fill="#101823"/><rect x="38" y="56" width="8" height="2" fill="#5fb39c"/><rect x="46" y="56" width="2" height="2" fill="#101823"/><rect x="16" y="58" width="2" height="2" fill="#101823"/><rect x="18" y="58" width="8" height="2" fill="#5fb39c"/><rect x="26" y="58" width="2" height="2" fill="#101823"/><rect x="36" y="58" width="2" height="2" fill="#101823"/><rect x="38" y="58" width="8" height="2" fill="#5fb39c"/><rect x="46" y="58" width="2" height="2" fill="#101823"/><rect x="16" y="60" width="12" height="2" fill="#101823"/><rect x="36" y="60" width="12" height="2" fill="#101823"/></svg>
